<?xml version="1.0" encoding="UTF-8" standalone="no"?>
<!DOCTYPE svg PUBLIC "-//W3C//DTD SVG 1.1//EN" "http://www.w3.org/Graphics/SVG/1.1/DTD/svg11.dtd">
<svg width="100%" height="100%" viewBox="0 0 800 600" version="1.1" xmlns="http://www.w3.org/2000/svg" xmlns:xlink="http://www.w3.org/1999/xlink" xml:space="preserve" xmlns:serif="http://www.serif.com/" style="fill-rule:evenodd;clip-rule:evenodd;stroke-linecap:round;stroke-linejoin:round;stroke-miterlimit:1.5;">
    <g transform="matrix(1.53511,0,0,1.53511,-214.045,-188.871)">
        <g transform="matrix(1,0,0,1.2387,-15.0622,-111.456)">
            <ellipse cx="415.062" cy="417.672" rx="254.291" ry="43.752" style="fill:rgb(97,166,101);stroke:black;stroke-width:2.65px;"/>
        </g>
        <g transform="matrix(0.999049,0,0,1,0.548091,0)">
            <g transform="matrix(1,0,0,1,-29.1978,-7.1028)">
                <path d="M603.597,408.633C592.686,440.154 259.528,443.776 254.799,408.633C248.806,364.104 282.416,237.632 321.106,208.346C365.114,175.034 478.386,180.16 530.677,197.823C577.362,213.593 614.141,378.173 603.597,408.633Z" style="fill:rgb(97,166,101);stroke:black;stroke-width:2.58px;"/>
            </g>
            <g transform="matrix(1.06997,0,0,1,-35.3374,0)">
                <path d="M567.017,349.574C564.795,337.079 251.272,343.635 248.334,351.264C244.304,361.728 244.506,388.835 244.506,388.835L570.283,389.711C570.283,389.711 570.445,381.144 569.719,370.866C569.208,363.635 568.04,355.319 567.017,349.574Z" style="fill:rgb(167,90,160);"/>
            </g>
        </g>
        <g transform="matrix(0.509622,0.0791899,-0.153547,0.988141,124.782,-41.0728)">
            <path d="M293.17,428.854C315.368,435.248 385.019,434.126 365.323,443.955C323.501,464.825 254.469,455.22 223.749,442.062C176.872,421.982 236.957,407.483 271.383,405.144C297.274,403.384 253.744,417.5 293.17,428.854Z" style="fill:rgb(210,254,212);"/>
        </g>
        <g transform="matrix(0.133577,0.0243347,-0.179227,0.983808,308.339,-141.169)">
            <path d="M405.786,344.829C517.853,344.462 547.034,343.402 545.717,357.164C544.272,372.264 509.447,455.237 465.698,467.951C396.309,488.117 302.15,478.278 235.579,465.203C200.302,458.274 242.562,434.222 255.307,400.868C259.121,390.887 289.566,345.211 405.786,344.829Z" style="fill:rgb(210,254,212);"/>
        </g>
    </g>
</svg>
